<?xml version="1.0" encoding="utf-8"?>
<!-- Generator: Adobe Illustrator 15.0.0, SVG Export Plug-In . SVG Version: 6.00 Build 0)  -->
<!DOCTYPE svg PUBLIC "-//W3C//DTD SVG 1.1//EN" "http://www.w3.org/Graphics/SVG/1.1/DTD/svg11.dtd">
<svg id="logo_svg" version="1.1" style="" xmlns="http://www.w3.org/2000/svg" xmlns:xlink="http://www.w3.org/1999/xlink" x="0px" y="0px"
   width="200px" height="84px" viewBox="0 0 245 84" enable-background="new 0 0 245 84" xml:space="preserve">
<g>
  <polygon fill-rule="evenodd" clip-rule="evenodd" fill="#FFFF7F" points="33.55,28.4 3,28.4 18.3,2  "/>
  <path fill-rule="evenodd" clip-rule="evenodd" fill="#7FFF7F" d="M33.55,28.4L18.3,2h60.8v0.1c-0.068,0.085-0.135,0.168-0.2,0.25
    l-0.15,0.275L61.15,28.4H33.55z"/>
  <polygon fill-rule="evenodd" clip-rule="evenodd" fill="#FF7F7F" points="48.7,54.75 33.55,81.2 3,28.4 34.95,30.825   "/>
  <polygon fill-rule="evenodd" clip-rule="evenodd" fill="#7F7FFF" points="94.3,28.4 63.95,81.2 50.1,52.35 63.95,28.4  "/>
  <path fill-rule="evenodd" clip-rule="evenodd" fill="#7FFFFF" d="M63.95,28.4l14.8-25.775L78.9,2.35
    c0.065-0.082,0.132-0.165,0.2-0.25V2l15.2,26.4H63.95z"/>
  <polygon fill-rule="evenodd" clip-rule="evenodd" fill="#FF7EFF" points="48.7,54.75 63.95,81.2 33.55,81.2  "/>
  <path fill-rule="evenodd" clip-rule="evenodd" fill="#FFFFFF" d="M188.05,51c0.5,1.267,0.75,2.733,0.75,4.399V69
    c0,1.666-0.25,3.133-0.75,4.399c-0.434,1.2-1.083,2.2-1.95,3c-0.833,0.733-1.816,1.284-2.949,1.65c-1.101,0.333-2.334,0.5-3.7,0.5
    h-7.9c-0.899,0-1.35-0.366-1.35-1.1v-30.5c0-0.733,0.45-1.101,1.35-1.101h7.9c1.333,0,2.566,0.167,3.7,0.5
    c1.133,0.367,2.116,0.934,2.949,1.7C186.967,48.816,187.616,49.8,188.05,51z M185.85,55.399c0-1.166-0.149-2.166-0.449-3
    c-0.267-0.866-0.684-1.583-1.25-2.149c-0.567-0.533-1.25-0.95-2.051-1.25c-0.767-0.267-1.649-0.4-2.649-0.4h-6.3v27.2h6.3
    c1,0,1.883-0.134,2.649-0.4c0.801-0.267,1.483-0.683,2.051-1.25c0.566-0.566,0.983-1.283,1.25-2.149c0.3-0.867,0.449-1.867,0.449-3
    V55.399z M198.65,47c0-0.767,0.449-1.15,1.35-1.15h15.9c0.733,0,1.1,0.434,1.1,1.3c0,0.967-0.366,1.45-1.1,1.45H201.6v12.3h7
    c0.767,0,1.15,0.434,1.15,1.301c0,0.833-0.384,1.25-1.15,1.25h-7V75.8H215.9c0.733,0,1.1,0.467,1.1,1.4
    c0,0.899-0.366,1.35-1.1,1.35H200c-0.9,0-1.35-0.384-1.35-1.15V47z M240.45,54.8c0-1.1-0.167-2.05-0.5-2.85
    c-0.3-0.767-0.767-1.417-1.4-1.95c-0.566-0.467-1.267-0.816-2.1-1.05c-0.8-0.233-1.717-0.351-2.75-0.351h-6.05v12.5h6.05
    c1.033,0,1.95-0.116,2.75-0.35c0.833-0.233,1.533-0.601,2.1-1.101c0.634-0.5,1.101-1.149,1.4-1.949
    C240.283,56.866,240.45,55.899,240.45,54.8z M237.45,46.3c1.2,0.3,2.217,0.783,3.05,1.45c0.934,0.7,1.634,1.616,2.1,2.75
    c0.534,1.166,0.801,2.55,0.801,4.149c0,1.367-0.184,2.567-0.551,3.601c-0.333,1-0.833,1.85-1.5,2.55
    c-0.6,0.7-1.333,1.25-2.199,1.65c-0.801,0.399-1.717,0.683-2.75,0.85l6.899,13.25l0.2,0.55c0,0.4-0.184,0.75-0.55,1.05
    c-0.367,0.334-0.75,0.5-1.15,0.5c-0.533,0-1.066-0.533-1.6-1.6l-6.851-13.4h-5.699v13.75c0,0.767-0.5,1.15-1.5,1.15
    c-0.967,0-1.45-0.384-1.45-1.15V46.95c0-0.667,0.366-1.034,1.1-1.101h7.9C235.1,45.85,236.35,46,237.45,46.3z M239.9,4.9
    c0.933,0.7,1.633,1.617,2.1,2.75c0.533,1.167,0.8,2.55,0.8,4.15c0,1.367-0.184,2.567-0.55,3.6c-0.333,1-0.833,1.85-1.5,2.55
    c-0.6,0.7-1.333,1.25-2.2,1.65c-0.8,0.4-1.717,0.684-2.75,0.85l6.9,13.25l0.2,0.55c0,0.4-0.184,0.75-0.551,1.05
    c-0.366,0.333-0.75,0.5-1.149,0.5c-0.533,0-1.066-0.533-1.601-1.6l-6.85-13.4h-5.7v13.75c0,0.767-0.5,1.15-1.5,1.15
    c-0.967,0-1.45-0.383-1.45-1.15V4.1c0-0.667,0.367-1.033,1.101-1.1h7.899c1.4,0,2.65,0.15,3.75,0.45
    C238.05,3.75,239.066,4.233,239.9,4.9z M239.85,11.95c0-1.1-0.166-2.05-0.5-2.85c-0.3-0.767-0.767-1.417-1.399-1.95
    c-0.566-0.467-1.267-0.817-2.101-1.05c-0.8-0.233-1.716-0.35-2.75-0.35h-6.05v12.5h6.05c1.034,0,1.95-0.117,2.75-0.35
    c0.834-0.233,1.534-0.6,2.101-1.1c0.633-0.5,1.1-1.15,1.399-1.95C239.684,14.017,239.85,13.05,239.85,11.95z M187.85,34.3
    c0,0.933-0.333,1.4-1,1.4H172.5c-0.9,0-1.35-0.383-1.35-1.15V4.1c0-0.733,0.483-1.1,1.449-1.1c1,0,1.5,0.367,1.5,1.1v28.85h12.75
    C187.517,32.95,187.85,33.4,187.85,34.3z M197.85,5.2c0.834-0.767,1.834-1.333,3-1.7c1.067-0.333,2.284-0.5,3.65-0.5
    c1.333,0,2.55,0.167,3.65,0.5c1.166,0.367,2.149,0.933,2.949,1.7c0.867,0.767,1.517,1.75,1.95,2.95c0.5,1.233,0.75,2.7,0.75,4.4
    V26.4c0,1.7-0.25,3.183-0.75,4.45c-0.434,1.167-1.083,2.15-1.95,2.95c-0.8,0.733-1.783,1.283-2.949,1.65
    c-1.101,0.333-2.317,0.5-3.65,0.5c-1.366,0-2.583-0.167-3.65-0.5c-1.166-0.367-2.166-0.917-3-1.65
    c-0.833-0.8-1.483-1.783-1.949-2.95c-0.467-1.267-0.7-2.75-0.7-4.45V12.55c0-1.7,0.233-3.167,0.7-4.4
    C196.366,6.95,197.017,5.966,197.85,5.2z M198.55,9.55c-0.267,0.833-0.399,1.833-0.399,3V26.4c0,1.167,0.133,2.183,0.399,3.05
    c0.3,0.833,0.717,1.533,1.25,2.1c0.566,0.6,1.233,1.033,2,1.3c0.8,0.267,1.7,0.4,2.7,0.4s1.884-0.133,2.65-0.4
    c0.8-0.267,1.466-0.7,2-1.3c0.566-0.567,0.983-1.267,1.25-2.1c0.3-0.867,0.449-1.883,0.449-3.05V12.55c0-1.167-0.149-2.167-0.449-3
    c-0.267-0.867-0.684-1.583-1.25-2.15c-0.534-0.533-1.2-0.95-2-1.25c-0.767-0.267-1.65-0.4-2.65-0.4s-1.9,0.133-2.7,0.4
    c-0.767,0.3-1.434,0.717-2,1.25C199.267,7.966,198.85,8.683,198.55,9.55z M127.85,46.45c1.101,0.399,2.067,0.949,2.9,1.649
    c0.767,0.667,1.35,1.467,1.75,2.4c0.434,0.866,0.65,1.816,0.65,2.85c0,0.7-0.117,1.184-0.351,1.45
    c-0.2,0.233-0.583,0.35-1.149,0.35c-0.934,0-1.417-0.383-1.45-1.149l-0.3-1.65c-0.2-0.666-0.483-1.25-0.851-1.75
    c-0.5-0.633-1.133-1.116-1.9-1.45c-0.9-0.366-1.983-0.55-3.25-0.55c-1.033,0-1.95,0.134-2.75,0.4c-0.8,0.3-1.467,0.717-2,1.25
    c-0.533,0.566-0.95,1.283-1.25,2.149c-0.267,0.834-0.4,1.834-0.4,3V69.25c0,1.166,0.133,2.184,0.4,3.05
    c0.3,0.866,0.717,1.566,1.25,2.1c0.567,0.601,1.267,1.034,2.1,1.301s1.783,0.399,2.85,0.399c1.267,0,2.316-0.184,3.15-0.55
    c0.733-0.333,1.333-0.8,1.8-1.4c0.533-0.733,0.917-1.916,1.15-3.55c0.1-0.767,0.583-1.149,1.45-1.149
    c0.533,0,0.916,0.116,1.149,0.35c0.233,0.267,0.351,0.75,0.351,1.45c0,1.033-0.217,2-0.65,2.899c-0.434,0.934-1.033,1.733-1.8,2.4
    c-0.834,0.733-1.816,1.283-2.95,1.65c-1.2,0.399-2.517,0.6-3.95,0.6c-1.3,0-2.5-0.167-3.6-0.5c-1.133-0.366-2.117-0.917-2.95-1.65
    c-0.867-0.8-1.517-1.783-1.95-2.949c-0.5-1.267-0.75-2.75-0.75-4.45V55.399c0-1.666,0.25-3.133,0.75-4.399
    c0.467-1.2,1.15-2.184,2.05-2.95c0.8-0.733,1.783-1.3,2.95-1.7c1.1-0.333,2.3-0.5,3.6-0.5C125.333,45.85,126.65,46.05,127.85,46.45
    z M159.7,51c0.5,1.233,0.75,2.7,0.75,4.399V69.25c0,1.7-0.25,3.184-0.75,4.45c-0.434,1.166-1.084,2.149-1.95,2.949
    c-0.8,0.733-1.783,1.284-2.95,1.65c-1.1,0.333-2.316,0.5-3.649,0.5c-1.367,0-2.584-0.167-3.65-0.5c-1.167-0.366-2.167-0.917-3-1.65
    c-0.833-0.8-1.483-1.783-1.95-2.949c-0.467-1.267-0.7-2.75-0.7-4.45V55.399c0-1.699,0.233-3.166,0.7-4.399
    c0.467-1.2,1.117-2.184,1.95-2.95s1.833-1.333,3-1.7c1.066-0.333,2.283-0.5,3.65-0.5c1.333,0,2.55,0.167,3.649,0.5
    c1.167,0.367,2.15,0.934,2.95,1.7C158.616,48.816,159.267,49.8,159.7,51z M157.5,55.399c0-1.166-0.15-2.166-0.45-3
    c-0.267-0.866-0.684-1.583-1.25-2.149c-0.533-0.533-1.2-0.95-2-1.25c-0.767-0.267-1.649-0.4-2.649-0.4s-1.9,0.134-2.7,0.4
    c-0.767,0.3-1.434,0.717-2,1.25c-0.533,0.566-0.95,1.283-1.25,2.149c-0.267,0.834-0.4,1.834-0.4,3V69.25
    c0,1.166,0.134,2.184,0.4,3.05c0.3,0.833,0.717,1.533,1.25,2.1c0.566,0.601,1.233,1.034,2,1.301c0.8,0.267,1.7,0.399,2.7,0.399
    s1.883-0.133,2.649-0.399c0.8-0.267,1.467-0.7,2-1.301c0.566-0.566,0.983-1.267,1.25-2.1c0.3-0.866,0.45-1.884,0.45-3.05V55.399z
     M160.65,8.15c0.5,1.233,0.75,2.7,0.75,4.4V26.4c0,1.7-0.25,3.183-0.75,4.45c-0.434,1.167-1.084,2.15-1.95,2.95
    c-0.8,0.733-1.783,1.283-2.95,1.65c-1.1,0.333-2.316,0.5-3.65,0.5c-1.366,0-2.583-0.167-3.649-0.5c-1.167-0.367-2.167-0.917-3-1.65
    c-0.834-0.8-1.483-1.783-1.95-2.95c-0.467-1.267-0.7-2.75-0.7-4.45V12.55c0-1.7,0.233-3.167,0.7-4.4
    c0.467-1.2,1.116-2.184,1.95-2.95c0.833-0.767,1.833-1.333,3-1.7c1.066-0.333,2.283-0.5,3.649-0.5c1.334,0,2.551,0.167,3.65,0.5
    c1.167,0.367,2.15,0.933,2.95,1.7C159.566,5.966,160.217,6.95,160.65,8.15z M158.45,12.55c0-1.167-0.15-2.167-0.45-3
    c-0.267-0.867-0.684-1.583-1.25-2.15c-0.533-0.533-1.2-0.95-2-1.25c-0.767-0.267-1.65-0.4-2.65-0.4s-1.899,0.133-2.699,0.4
    c-0.767,0.3-1.434,0.717-2,1.25c-0.534,0.566-0.95,1.283-1.25,2.15c-0.267,0.833-0.4,1.833-0.4,3V26.4
    c0,1.167,0.134,2.183,0.4,3.05c0.3,0.833,0.716,1.533,1.25,2.1c0.566,0.6,1.233,1.033,2,1.3c0.8,0.267,1.699,0.4,2.699,0.4
    s1.884-0.133,2.65-0.4c0.8-0.267,1.467-0.7,2-1.3c0.566-0.567,0.983-1.267,1.25-2.1c0.3-0.867,0.45-1.883,0.45-3.05V12.55z
     M123.9,5.75c-1.033,0-1.95,0.133-2.75,0.4c-0.8,0.3-1.467,0.717-2,1.25c-0.533,0.566-0.95,1.283-1.25,2.15
    c-0.267,0.833-0.4,1.833-0.4,3V26.4c0,1.167,0.133,2.183,0.4,3.05c0.3,0.867,0.717,1.567,1.25,2.1c0.567,0.6,1.267,1.033,2.1,1.3
    c0.833,0.267,1.783,0.4,2.85,0.4c1.267,0,2.316-0.184,3.15-0.55c0.733-0.333,1.333-0.8,1.8-1.4c0.533-0.733,0.917-1.917,1.15-3.55
    c0.1-0.767,0.583-1.15,1.45-1.15c0.533,0,0.916,0.117,1.149,0.35c0.233,0.267,0.351,0.75,0.351,1.45c0,1.033-0.217,2-0.65,2.9
    c-0.434,0.933-1.033,1.733-1.8,2.4c-0.834,0.733-1.816,1.283-2.95,1.65c-1.2,0.4-2.517,0.6-3.95,0.6c-1.3,0-2.5-0.167-3.6-0.5
    c-1.133-0.367-2.117-0.917-2.95-1.65c-0.867-0.8-1.517-1.783-1.95-2.95c-0.5-1.267-0.75-2.75-0.75-4.45V12.55
    c0-1.667,0.25-3.133,0.75-4.4c0.467-1.2,1.15-2.184,2.05-2.95c0.8-0.733,1.783-1.3,2.95-1.7c1.1-0.333,2.3-0.5,3.6-0.5
    c1.434,0,2.75,0.2,3.95,0.6c1.101,0.4,2.067,0.95,2.9,1.65c0.767,0.667,1.35,1.466,1.75,2.4c0.434,0.867,0.65,1.816,0.65,2.85
    c0,0.7-0.117,1.183-0.351,1.45c-0.2,0.233-0.583,0.35-1.149,0.35c-0.934,0-1.417-0.383-1.45-1.15l-0.3-1.65
    c-0.2-0.667-0.483-1.25-0.851-1.75c-0.5-0.633-1.133-1.117-1.9-1.45C126.25,5.933,125.167,5.75,123.9,5.75z"/>
</g>
</svg>