<?xml version="1.0" encoding="utf-8"?>
<!-- Generator: Adobe Illustrator 15.0.0, SVG Export Plug-In . SVG Version: 6.00 Build 0)  -->
<!DOCTYPE svg PUBLIC "-//W3C//DTD SVG 1.1//EN" "http://www.w3.org/Graphics/SVG/1.1/DTD/svg11.dtd">
<svg version="1.1" xmlns="http://www.w3.org/2000/svg" xmlns:xlink="http://www.w3.org/1999/xlink" x="0px" y="0px" width="101.3px"
	 height="89px" viewBox="0 0 101.3 89" enable-background="new 0 0 101.3 89" xml:space="preserve">
<g id="Camada_5">
</g>
<g id="logo">
	<g>
		<path fill-rule="evenodd" clip-rule="evenodd" fill="#272F32" d="M88.038,17.929c3.083,2.32,3.083,5.84,0,10.563
			c-3.597,5.264-7.583,9.583-11.958,12.959c-0.25,0.514-0.514,1.048-0.792,1.604c-1.653,3.208-3.583,6.299-5.792,9.271
			c-1.111,1.5-2.306,2.972-3.583,4.417c-0.222,0.264-0.451,0.521-0.688,0.771c-4.097,4.528-9.798,5.243-17.104,2.146
			c-1.917-0.833-3.813-1.806-5.688-2.917c-2.125-1.292-4.215-2.764-6.271-4.417c-1.319-1.083-2.625-2.236-3.917-3.458
			c-0.708,1.528-1.563,2.681-2.563,3.458c-0.625,0.472-1.285,0.813-1.979,1.021c-0.028,0-0.063,0.014-0.104,0.042
			c-2.194,0.681-3.646,0.563-4.354-0.354c-1.236,0.347-2.479,0.486-3.729,0.417c-1.014-0.042-1.722-0.319-2.125-0.833
			c-0.125-0.097-0.236-0.194-0.333-0.292l-0.021-0.021c-1.167,0.056-2.299-0.111-3.396-0.5c-0.194-0.055-0.375-0.139-0.542-0.25
			c-1.014-0.625-1.646-1.306-1.896-2.042c-2.153-0.278-3.945-0.792-5.375-1.542c-3.945-2.583-5.473-5.153-4.583-7.708
			c0.167-0.527,0.486-1.007,0.958-1.438c0.583-0.833,2.035-1.326,4.354-1.479c-0.083-0.264-0.125-0.521-0.125-0.771
			c-0.319-1.264,0.194-2.431,1.542-3.5c0.333-0.306,0.806-0.59,1.417-0.854c-0.195-0.931,0.201-1.847,1.188-2.75
			c0.375-0.445,1.139-0.91,2.292-1.396c1.167-0.5,2.32-0.882,3.458-1.146c-0.222-4.139,0.729-7.611,2.854-10.417
			c2.167-2.931,6.396-5.757,12.688-8.479c6.278-2.736,12.986-4.486,20.125-5.25c7.139-0.764,11.875-0.979,14.208-0.646
			c8.195,0.736,12.896,4.646,14.104,11.729c1.82,0.708,3.667,1.528,5.542,2.458c0,0.014,0.028,0.035,0.083,0.063
			C86.767,16.846,87.468,17.36,88.038,17.929z M68.954,26.096c1.07,3.889,1.848,7.813,2.333,11.771
			c0.167,0.861,0.667,1.111,1.5,0.75c4.806-3.306,9.104-7.854,12.896-13.646c0.792-1.306,1.035-2.479,0.729-3.521
			c-0.264-1.069-1.076-1.986-2.438-2.75c-6.153-3.125-12.132-4.917-17.938-5.375c-0.917,0.153-1.25,0.625-1,1.417
			C66.621,18.408,67.927,22.193,68.954,26.096z M98.143,64.617c0.611,0.222,1.118,0.521,1.521,0.896
			c0.389,0.389,0.597,0.854,0.625,1.396c0,0.333-0.069,0.667-0.208,1c-0.139,0.333-0.347,0.618-0.625,0.854
			c-0.25,0.25-0.555,0.375-0.917,0.375c-0.389-0.015-0.771-0.09-1.146-0.229c-0.375-0.139-0.771-0.285-1.188-0.438
			c-0.403-0.153-0.847-0.229-1.333-0.229c-0.875,0-1.597,0.222-2.167,0.667c-0.583,0.472-1.014,1.063-1.292,1.771
			c-0.278,0.723-0.417,1.479-0.417,2.271c0,0.778,0.152,1.521,0.458,2.229c0.278,0.708,0.715,1.292,1.313,1.75
			c0.569,0.458,1.271,0.694,2.104,0.708c0.389-0.014,0.82-0.097,1.292-0.25c0.458-0.167,0.882-0.327,1.271-0.479
			c0.375-0.152,0.667-0.236,0.875-0.25c0.556,0.014,1.021,0.222,1.396,0.625c0.361,0.375,0.555,0.847,0.583,1.417
			c-0.028,0.583-0.243,1.077-0.646,1.479c-0.403,0.402-0.917,0.729-1.542,0.979c-0.625,0.25-1.243,0.431-1.854,0.542
			c-0.639,0.111-1.173,0.167-1.604,0.167c-1.667-0.028-3.118-0.444-4.354-1.25c-1.236-0.806-2.195-1.875-2.875-3.208
			c-0.694-1.333-1.042-2.819-1.042-4.458c0-1.569,0.354-3.035,1.063-4.396c0.694-1.361,1.66-2.452,2.896-3.271
			c1.25-0.833,2.687-1.257,4.312-1.271c0.473,0,1.028,0.049,1.667,0.146C96.934,64.243,97.545,64.395,98.143,64.617z M68.496,70.618
			c-0.264,0.694-0.396,1.423-0.396,2.188c0,0.777,0.132,1.535,0.396,2.271c0.236,0.722,0.625,1.326,1.167,1.813
			c0.542,0.472,1.236,0.722,2.083,0.75c0.792-0.027,1.451-0.277,1.979-0.75c0.542-0.473,0.944-1.056,1.208-1.75
			c0.264-0.708,0.396-1.438,0.396-2.188c0-0.736-0.132-1.458-0.396-2.167c-0.264-0.723-0.667-1.326-1.208-1.813
			c-0.528-0.473-1.187-0.715-1.979-0.729c-0.833,0-1.521,0.222-2.063,0.667C69.156,69.354,68.76,69.923,68.496,70.618z
			 M79.475,69.826c0.306,1.083,0.458,2.194,0.458,3.333c0,1.111-0.173,2.181-0.521,3.208c-0.348,1.028-0.854,1.958-1.521,2.792
			c-0.667,0.82-1.465,1.472-2.396,1.958c-0.931,0.486-1.986,0.736-3.167,0.75c-0.722,0-1.452-0.139-2.188-0.417
			c-0.736-0.264-1.417-0.66-2.042-1.188v5.625c0,0.778-0.215,1.396-0.646,1.854c-0.417,0.473-0.965,0.708-1.646,0.708
			c-0.694,0-1.25-0.236-1.667-0.708c-0.43-0.458-0.652-1.076-0.667-1.854V66.763c0.014-0.778,0.236-1.396,0.667-1.854
			c0.417-0.458,0.973-0.695,1.667-0.708c0.639,0,1.146,0.167,1.521,0.5c0.375,0.333,0.632,0.806,0.771,1.417
			c0.458-0.695,1.09-1.223,1.896-1.584c0.792-0.347,1.625-0.521,2.5-0.521c1.25,0,2.34,0.264,3.271,0.792
			c0.931,0.528,1.701,1.223,2.313,2.083C78.705,67.763,79.169,68.743,79.475,69.826z M80.788,66.763
			c0-0.778,0.215-1.396,0.646-1.854c0.417-0.458,0.973-0.695,1.667-0.708c0.681,0.014,1.229,0.25,1.646,0.708
			c0.417,0.458,0.639,1.076,0.667,1.854v12.313c-0.027,0.792-0.25,1.417-0.667,1.875c-0.417,0.458-0.965,0.694-1.646,0.708
			c-0.694-0.014-1.25-0.25-1.667-0.708c-0.431-0.458-0.646-1.083-0.646-1.875V66.763z M83.08,63.201
			c-0.708-0.014-1.313-0.285-1.813-0.813c-0.5-0.5-0.764-1.118-0.792-1.854c0.027-0.667,0.292-1.25,0.792-1.75
			c0.5-0.5,1.104-0.764,1.813-0.791c0.708,0.027,1.32,0.284,1.833,0.771c0.5,0.486,0.757,1.076,0.771,1.771
			c-0.014,0.736-0.264,1.354-0.75,1.854C84.448,62.916,83.83,63.187,83.08,63.201z M53.267,10.825
			c-2.903-1.139-5.563-1.695-7.979-1.667c-0.722,0-1.257,0.153-1.604,0.458c-2.528,1.639-4.423,3.375-5.688,5.208
			c-0.181,0.5-0.063,0.896,0.354,1.188l1.792,1.333c0.458,0.389,0.917,0.465,1.375,0.229c3.514-2.264,7.542-4.035,12.083-5.313
			C54.475,11.874,54.364,11.395,53.267,10.825z M60.371,13.763c-7.181,0.305-14.091,2.729-20.729,7.271
			c-0.889,0.542-1.333,1.361-1.333,2.458c-0.083,3.653,0.34,7.202,1.271,10.646c0.958,3.389,2.382,6.695,4.271,9.917
			c0.514,0.917,1.305,1.417,2.375,1.5c7.973,0.597,15.167-0.771,21.584-4.104c0.625-0.403,0.889-0.924,0.792-1.563
			c-0.43-4.361-1.229-8.66-2.396-12.896c-1.111-4.236-2.563-8.347-4.354-12.333C61.572,14.061,61.079,13.763,60.371,13.763z
			 M38.642,39.409c-0.681-1.708-1.257-3.347-1.729-4.917c-0.375-1.611-0.694-3.327-0.958-5.146c-0.111-0.694-0.507-1.195-1.188-1.5
			c-0.722-0.292-1.417-0.5-2.083-0.625c-0.875-0.125-1.313,0.423-1.313,1.646c0.125,2.417,0.472,4.695,1.042,6.833
			c0.583,2.125,1.438,4.236,2.563,6.333c0.542,1.083,1.167,1.375,1.875,0.875c0.556-0.417,1.056-0.944,1.5-1.583
			C38.822,40.7,38.919,40.062,38.642,39.409z M10.599,37.846c2.098,1.556,1.299,2.403-2.396,2.542
			c-3.695,0.111-4.646,1.035-2.854,2.771c1.861,1.736,5.021,2.597,9.479,2.583c-1.361,0.875-1.556,1.611-0.583,2.208
			c1.736,0.583,3.583,0.431,5.542-0.458c-1.125,1.264-1.25,1.923-0.375,1.979c1.944,0.097,3.861-0.479,5.75-1.729
			c-0.958,1.764-0.486,2.347,1.417,1.75c1.903-0.681,3.313-2.882,4.229-6.604c0.917-3.792,0.597-4.625-0.958-2.5
			c-1.542,2.181-3.132,3.445-4.771,3.792c-1.639,0.361-2.917,0.417-3.833,0.167c-0.875-0.264-0.535-0.951,1.021-2.063
			c1.611-1.069,1.819-1.701,0.625-1.896c-1.167-0.194-2.125-0.569-2.875-1.125c-0.75-0.542-0.035-1.229,2.146-2.063
			c2.153-0.847,2.632-1.548,1.438-2.104c-1.236-0.625-1.944-1.354-2.125-2.188c-0.153-0.917,1.354-0.965,4.521-0.146
			c3.167,0.82,3.854,0.451,2.063-1.104c-1.778-1.611-3.799-2.702-6.063-3.271c-2.222-0.611-2.889-0.056-2,1.667
			c-1.417-0.167-3.333,0.208-5.75,1.125c-2.319,0.875-1.847,1.75,1.417,2.625C10.19,34.846,8.502,36.193,10.599,37.846z
			 M30.621,68.972c-0.542-0.473-1.236-0.715-2.083-0.729c-0.833,0.014-1.521,0.256-2.063,0.729
			c-0.542,0.472-0.944,1.069-1.208,1.792c-0.25,0.708-0.375,1.438-0.375,2.188c0,0.764,0.125,1.5,0.375,2.208
			c0.264,0.708,0.674,1.292,1.229,1.75c0.542,0.458,1.222,0.702,2.042,0.729c0.833-0.027,1.521-0.271,2.063-0.729
			c0.542-0.458,0.945-1.042,1.208-1.75c0.264-0.708,0.396-1.444,0.396-2.208c0-0.75-0.132-1.479-0.396-2.188
			C31.558,70.041,31.162,69.444,30.621,68.972z M28.537,64.013c1.639,0.014,3.077,0.438,4.313,1.271
			c1.236,0.819,2.202,1.91,2.896,3.271c0.708,1.361,1.069,2.826,1.083,4.396c-0.014,1.639-0.361,3.125-1.042,4.458
			c-0.694,1.333-1.653,2.403-2.875,3.208c-1.25,0.806-2.708,1.222-4.375,1.25c-1.653-0.028-3.104-0.444-4.354-1.25
			c-1.236-0.806-2.188-1.875-2.854-3.208c-0.694-1.333-1.049-2.819-1.063-4.458c0.014-1.569,0.368-3.035,1.063-4.396
			c0.694-1.361,1.66-2.452,2.896-3.271C25.475,64.451,26.912,64.027,28.537,64.013z M5.787,64.909
			c0.417,0.458,0.632,1.076,0.646,1.854v12.313c-0.014,0.792-0.229,1.417-0.646,1.875c-0.417,0.458-0.965,0.694-1.646,0.708
			c-0.694-0.014-1.25-0.25-1.667-0.708c-0.431-0.458-0.653-1.083-0.667-1.875V66.763c0.014-0.778,0.236-1.396,0.667-1.854
			c0.417-0.458,0.972-0.695,1.667-0.708C4.821,64.214,5.37,64.451,5.787,64.909z M13.766,64.013c0.569,0,1.181,0.063,1.833,0.188
			c0.681,0.139,1.306,0.348,1.875,0.625c0.597,0.264,1.083,0.604,1.458,1.021c0.389,0.417,0.583,0.917,0.583,1.5
			c0,0.542-0.181,1.014-0.542,1.417c-0.333,0.403-0.785,0.611-1.354,0.625c-0.292,0-0.66-0.111-1.104-0.333
			c-0.458-0.222-0.951-0.444-1.479-0.667c-0.514-0.208-1.028-0.319-1.542-0.333c-0.43,0-0.798,0.098-1.104,0.292
			c-0.306,0.208-0.458,0.535-0.458,0.979c0.014,0.417,0.285,0.771,0.813,1.063c0.528,0.277,1.195,0.562,2,0.854
			c0.792,0.277,1.583,0.625,2.375,1.042c0.792,0.403,1.458,0.938,2,1.604c0.528,0.667,0.806,1.514,0.833,2.542
			c-0.014,1.042-0.292,1.972-0.833,2.792c-0.542,0.806-1.305,1.444-2.292,1.917c-0.972,0.472-2.125,0.715-3.458,0.729
			c-0.667,0-1.368-0.09-2.104-0.271c-0.75-0.167-1.452-0.41-2.104-0.729c-0.653-0.319-1.188-0.702-1.604-1.146
			c-0.417-0.431-0.632-0.902-0.646-1.417c0-0.25,0.076-0.528,0.229-0.833c0.167-0.334,0.389-0.618,0.667-0.855
			c0.292-0.236,0.653-0.361,1.083-0.375c0.597,0.014,1.118,0.153,1.563,0.417c0.458,0.25,0.93,0.5,1.417,0.75
			c0.5,0.25,1.104,0.389,1.813,0.417c0.694,0,1.181-0.111,1.458-0.333c0.25-0.222,0.375-0.556,0.375-1
			c-0.028-0.403-0.306-0.75-0.833-1.042c-0.542-0.277-1.208-0.562-2-0.854c-0.792-0.278-1.583-0.618-2.375-1.021
			c-0.778-0.417-1.438-0.958-1.979-1.625c-0.528-0.653-0.806-1.507-0.833-2.563c0-1.069,0.271-2.007,0.813-2.813
			c0.528-0.806,1.257-1.431,2.188-1.875C11.44,64.243,12.53,64.013,13.766,64.013z M1.516,60.534c0.028-0.667,0.292-1.25,0.792-1.75
			c0.5-0.5,1.104-0.764,1.813-0.791c0.708,0.027,1.313,0.284,1.813,0.771s0.764,1.076,0.792,1.771
			c-0.028,0.736-0.277,1.354-0.75,1.854c-0.486,0.528-1.104,0.798-1.854,0.813c-0.708-0.014-1.313-0.285-1.813-0.813
			C1.808,61.888,1.544,61.27,1.516,60.534z M56.892,54.076c0.833-0.486,1.66-1.076,2.479-1.771c1.195-1.014,2.368-2.264,3.521-3.75
			c0.722-0.958,0.611-1.403-0.333-1.333c-4.611,1.139-9.014,1.583-13.209,1.333c-0.514,0.069-0.868,0.382-1.062,0.938l-0.917,2
			c-0.125,0.306-0.132,0.577-0.021,0.813c0.069,0.181,0.201,0.34,0.396,0.479c1.972,0.931,4.473,1.472,7.5,1.625
			C55.704,54.534,56.252,54.423,56.892,54.076z M51.059,70.763c-0.264,0.708-0.396,1.438-0.396,2.188c0,0.764,0.132,1.5,0.396,2.208
			c0.25,0.708,0.652,1.292,1.208,1.75c0.542,0.458,1.222,0.702,2.042,0.729c0.833-0.027,1.521-0.271,2.063-0.729
			c0.542-0.458,0.944-1.042,1.208-1.75c0.264-0.708,0.396-1.444,0.396-2.208c0-0.75-0.132-1.479-0.396-2.188
			c-0.25-0.722-0.646-1.319-1.188-1.792c-0.542-0.473-1.236-0.715-2.083-0.729c-0.833,0.014-1.521,0.256-2.063,0.729
			C51.704,69.444,51.308,70.041,51.059,70.763z M47.1,68.555c0.695-1.361,1.66-2.452,2.896-3.271
			c1.25-0.833,2.688-1.257,4.313-1.271c1.639,0.014,3.076,0.438,4.312,1.271c1.236,0.819,2.202,1.91,2.896,3.271
			c0.708,1.361,1.069,2.826,1.083,4.396c-0.014,1.639-0.361,3.125-1.042,4.458c-0.694,1.333-1.652,2.403-2.875,3.208
			c-1.25,0.806-2.708,1.222-4.375,1.25c-1.653-0.028-3.104-0.444-4.354-1.25c-1.236-0.806-2.188-1.875-2.854-3.208
			c-0.694-1.333-1.048-2.819-1.062-4.458C46.051,71.381,46.405,69.916,47.1,68.555z M39.496,59.784
			c0.417-0.473,0.965-0.708,1.646-0.708s1.229,0.236,1.646,0.708c0.431,0.458,0.653,1.076,0.667,1.854v2.771h1.313
			c0.597-0.028,1.111,0.118,1.542,0.437c0.431,0.32,0.653,0.84,0.667,1.563c-0.014,0.722-0.236,1.243-0.667,1.563
			c-0.43,0.319-0.944,0.479-1.542,0.479h-1.313v10.625c-0.014,0.792-0.236,1.417-0.667,1.875c-0.417,0.458-0.965,0.694-1.646,0.708
			c-0.681-0.014-1.229-0.25-1.646-0.708c-0.431-0.458-0.653-1.083-0.667-1.875V68.451h-1.021c-0.639-0.027-1.132-0.215-1.479-0.562
			c-0.361-0.361-0.542-0.854-0.542-1.479c0.014-0.583,0.202-1.063,0.563-1.438c0.389-0.375,0.875-0.563,1.458-0.563h1.021v-2.771
			C38.843,60.86,39.065,60.242,39.496,59.784z"/>
		<path fill-rule="evenodd" clip-rule="evenodd" fill="#FF4221" d="M10.599,37.846c-2.097-1.653-0.409-3,5.063-4.042
			c-3.264-0.875-3.736-1.75-1.417-2.625c2.417-0.917,4.333-1.292,5.75-1.125c-0.889-1.723-0.223-2.278,2-1.667
			c2.264,0.569,4.285,1.66,6.063,3.271c1.792,1.555,1.104,1.924-2.063,1.104c-3.167-0.819-4.674-0.771-4.521,0.146
			c0.181,0.833,0.889,1.563,2.125,2.188c1.194,0.556,0.715,1.257-1.438,2.104c-2.181,0.833-2.896,1.521-2.146,2.063
			c0.75,0.555,1.708,0.93,2.875,1.125c1.194,0.195,0.986,0.827-0.625,1.896c-1.555,1.111-1.896,1.799-1.021,2.063
			c0.917,0.25,2.194,0.194,3.833-0.167c1.639-0.347,3.229-1.611,4.771-3.792c1.556-2.125,1.875-1.292,0.958,2.5
			c-0.917,3.722-2.327,5.924-4.229,6.604c-1.903,0.597-2.375,0.014-1.417-1.75c-1.889,1.25-3.806,1.827-5.75,1.729
			c-0.875-0.056-0.75-0.716,0.375-1.979c-1.958,0.889-3.806,1.042-5.542,0.458c-0.972-0.597-0.778-1.333,0.583-2.208
			c-4.458,0.014-7.618-0.847-9.479-2.583c-1.792-1.736-0.84-2.66,2.854-2.771C11.898,40.249,12.697,39.402,10.599,37.846z"/>
		<path fill-rule="evenodd" clip-rule="evenodd" fill="#FFFFFF" d="M68.954,26.096c-1.027-3.903-2.333-7.688-3.917-11.354
			c-0.25-0.792,0.083-1.264,1-1.417c5.806,0.458,11.785,2.25,17.938,5.375c1.361,0.764,2.173,1.681,2.438,2.75
			c0.306,1.042,0.063,2.215-0.729,3.521c-3.792,5.792-8.09,10.34-12.896,13.646c-0.833,0.361-1.333,0.111-1.5-0.75
			C70.802,33.909,70.024,29.985,68.954,26.096z M60.371,13.763c0.708,0,1.201,0.298,1.479,0.896
			c1.792,3.986,3.243,8.098,4.354,12.333c1.167,4.236,1.966,8.535,2.396,12.896c0.097,0.639-0.167,1.16-0.792,1.563
			c-6.417,3.333-13.611,4.701-21.584,4.104c-1.069-0.083-1.861-0.583-2.375-1.5c-1.889-3.222-3.313-6.528-4.271-9.917
			c-0.931-3.444-1.354-6.993-1.271-10.646c0-1.097,0.444-1.917,1.333-2.458C46.28,16.492,53.19,14.068,60.371,13.763z
			 M53.267,10.825c1.097,0.569,1.208,1.048,0.333,1.437c-4.542,1.278-8.57,3.049-12.083,5.313c-0.458,0.236-0.917,0.16-1.375-0.229
			l-1.792-1.333c-0.417-0.292-0.535-0.688-0.354-1.188c1.264-1.833,3.16-3.569,5.688-5.208c0.347-0.306,0.882-0.458,1.604-0.458
			C47.704,9.13,50.364,9.686,53.267,10.825z M38.642,39.409c0.277,0.653,0.18,1.292-0.292,1.917c-0.444,0.639-0.944,1.167-1.5,1.583
			c-0.708,0.5-1.333,0.208-1.875-0.875c-1.125-2.097-1.979-4.208-2.563-6.333c-0.569-2.139-0.917-4.417-1.042-6.833
			c0-1.222,0.438-1.771,1.313-1.646c0.667,0.125,1.361,0.333,2.083,0.625c0.681,0.305,1.077,0.806,1.188,1.5
			c0.264,1.819,0.583,3.535,0.958,5.146C37.385,36.062,37.961,37.7,38.642,39.409z M56.892,54.076
			c-0.64,0.347-1.188,0.458-1.646,0.333c-3.028-0.152-5.528-0.694-7.5-1.625c-0.194-0.139-0.326-0.299-0.396-0.479
			c-0.111-0.236-0.104-0.507,0.021-0.813l0.917-2c0.194-0.556,0.548-0.868,1.062-0.938c4.195,0.25,8.598-0.194,13.209-1.333
			c0.944-0.069,1.055,0.375,0.333,1.333c-1.153,1.486-2.326,2.736-3.521,3.75C58.552,53,57.725,53.589,56.892,54.076z"/>
	</g>
</g>
</svg>
